<svg width="35" height="42" viewBox="0 0 35 42" fill="none" xmlns="http://www.w3.org/2000/svg">
<path d="M0.365 40.2V38.295C0.645 38.295 0.87 38.225 1.04 38.085C1.21 37.9417 1.34 37.7517 1.43 37.515C1.52 37.2783 1.58833 37.0133 1.635 36.72C1.68167 36.4233 1.72167 36.1233 1.755 35.82C1.80167 35.3767 1.83833 34.9483 1.865 34.535C1.895 34.1217 1.92 33.6933 1.94 33.25C1.96333 32.8067 1.99 32.3217 2.02 31.795L6.46 31.8V38.295H6.975V40.2H6.245V39H1.1V40.2H0.365ZM1.77 38.295H5.725V32.505L2.705 32.5C2.685 32.9067 2.665 33.3 2.645 33.68C2.625 34.06 2.60167 34.4433 2.575 34.83C2.54833 35.2167 2.51333 35.62 2.47 36.04C2.43333 36.4233 2.39 36.7583 2.34 37.045C2.29 37.3317 2.22 37.5767 2.13 37.78C2.04333 37.9833 1.92333 38.155 1.77 38.295ZM10.498 39.15C10.0014 39.15 9.58138 39.025 9.23805 38.775C8.89471 38.5217 8.63471 38.18 8.45805 37.75C8.28138 37.3167 8.19305 36.8317 8.19305 36.295C8.19305 35.7483 8.28138 35.2617 8.45805 34.835C8.63805 34.405 8.90138 34.0667 9.24805 33.82C9.59471 33.5733 10.0214 33.45 10.528 33.45C11.0214 33.45 11.4447 33.575 11.798 33.825C12.1514 34.075 12.4214 34.415 12.608 34.845C12.798 35.275 12.893 35.7583 12.893 36.295C12.893 36.835 12.798 37.32 12.608 37.75C12.418 38.18 12.1447 38.5217 11.788 38.775C11.4314 39.025 11.0014 39.15 10.498 39.15ZM8.06805 41.4V33.6H8.72805V37.665H8.80805V41.4H8.06805ZM10.423 38.465C10.7997 38.465 11.113 38.37 11.363 38.18C11.613 37.99 11.7997 37.7317 11.923 37.405C12.0497 37.075 12.113 36.705 12.113 36.295C12.113 35.8883 12.0514 35.5217 11.928 35.195C11.8047 34.8683 11.6164 34.61 11.363 34.42C11.113 34.23 10.7947 34.135 10.408 34.135C10.0314 34.135 9.71805 34.2267 9.46805 34.41C9.22138 34.5933 9.03638 34.8483 8.91305 35.175C8.78971 35.4983 8.72805 35.8717 8.72805 36.295C8.72805 36.7117 8.78971 37.085 8.91305 37.415C9.03638 37.7417 9.22305 37.9983 9.47305 38.185C9.72305 38.3717 10.0397 38.465 10.423 38.465ZM14.5657 41.4L15.6107 38.565L15.6257 39.405L13.2607 33.6H14.0407L15.9807 38.455H15.6607L17.4507 33.6H18.2007L15.3007 41.4H14.5657ZM21.0141 39.15C20.4708 39.15 19.9958 39.0317 19.5891 38.795C19.1858 38.555 18.8675 38.2233 18.6341 37.8L19.2241 37.425C19.4208 37.7583 19.6658 38.0117 19.9591 38.185C20.2525 38.3583 20.5891 38.445 20.9691 38.445C21.3658 38.445 21.6841 38.3533 21.9241 38.17C22.1641 37.9867 22.2841 37.735 22.2841 37.415C22.2841 37.195 22.2325 37.02 22.1291 36.89C22.0291 36.76 21.8758 36.6667 21.6691 36.61C21.4658 36.5533 21.2108 36.525 20.9041 36.525H20.2641V35.895H20.8941C21.2675 35.895 21.5675 35.8283 21.7941 35.695C22.0241 35.5583 22.1391 35.345 22.1391 35.055C22.1391 34.7483 22.0241 34.5217 21.7941 34.375C21.5675 34.225 21.2958 34.15 20.9791 34.15C20.6591 34.15 20.3558 34.2167 20.0691 34.35C19.7858 34.48 19.5475 34.6483 19.3541 34.855L18.8841 34.36C19.1541 34.0633 19.4691 33.8383 19.8291 33.685C20.1925 33.5283 20.5941 33.45 21.0341 33.45C21.3808 33.45 21.6941 33.5117 21.9741 33.635C22.2575 33.755 22.4808 33.9317 22.6441 34.165C22.8108 34.3983 22.8941 34.6783 22.8941 35.005C22.8941 35.3117 22.8191 35.5767 22.6691 35.8C22.5225 36.0233 22.3141 36.2083 22.0441 36.355L22.0041 36.08C22.2375 36.1233 22.4308 36.2167 22.5841 36.36C22.7375 36.5033 22.8508 36.675 22.9241 36.875C22.9975 37.075 23.0341 37.2783 23.0341 37.485C23.0341 37.8283 22.9441 38.125 22.7641 38.375C22.5875 38.6217 22.3458 38.8133 22.0391 38.95C21.7358 39.0833 21.3941 39.15 21.0141 39.15ZM24.1425 39L24.1325 33.6H24.8725V35.635H26.1375C26.2942 35.635 26.4475 35.6383 26.5975 35.645C26.7508 35.6517 26.8858 35.665 27.0025 35.685C27.2692 35.735 27.5058 35.8233 27.7125 35.95C27.9225 36.0767 28.0858 36.2517 28.2025 36.475C28.3225 36.6983 28.3825 36.9783 28.3825 37.315C28.3825 37.7783 28.2625 38.1433 28.0225 38.41C27.7858 38.6767 27.4858 38.85 27.1225 38.93C26.9858 38.96 26.8375 38.98 26.6775 38.99C26.5175 38.9967 26.3592 39 26.2025 39H24.1425ZM24.8725 38.37H26.1725C26.2858 38.37 26.4125 38.3667 26.5525 38.36C26.6925 38.3533 26.8158 38.335 26.9225 38.305C27.0992 38.255 27.2592 38.155 27.4025 38.005C27.5492 37.8517 27.6225 37.6217 27.6225 37.315C27.6225 37.0117 27.5525 36.7833 27.4125 36.63C27.2725 36.4733 27.0858 36.37 26.8525 36.32C26.7492 36.2967 26.6375 36.2817 26.5175 36.275C26.3975 36.2683 26.2825 36.265 26.1725 36.265H24.8725V38.37ZM32.8643 39V36.965H31.6043C31.4576 36.965 31.306 36.96 31.1493 36.95C30.996 36.9367 30.8526 36.9183 30.7193 36.895C30.3393 36.8217 30.016 36.655 29.7493 36.395C29.486 36.1317 29.3543 35.7683 29.3543 35.305C29.3543 34.8517 29.4776 34.4883 29.7243 34.215C29.971 33.9383 30.2693 33.7583 30.6193 33.675C30.7793 33.6383 30.941 33.6167 31.1043 33.61C31.271 33.6033 31.4143 33.6 31.5343 33.6H33.5993L33.6043 39H32.8643ZM29.1793 39L30.6843 36.735H31.4993L29.9843 39H29.1793ZM31.5643 36.335H32.8643V34.23H31.5643C31.4843 34.23 31.3726 34.2333 31.2293 34.24C31.086 34.2467 30.951 34.2683 30.8243 34.305C30.7143 34.3383 30.6043 34.3967 30.4943 34.48C30.3876 34.56 30.2976 34.6683 30.2243 34.805C30.151 34.9383 30.1143 35.1017 30.1143 35.295C30.1143 35.565 30.1876 35.7817 30.3343 35.945C30.4843 36.105 30.671 36.215 30.8943 36.275C31.0143 36.3017 31.1343 36.3183 31.2543 36.325C31.3743 36.3317 31.4776 36.335 31.5643 36.335Z" fill="#2C2C2C"/>
<path d="M25.9548 7.45956L21.4008 3.36211C20.1048 2.19486 19.4573 1.61066 18.6604 1.30591L18.65 4.45001C18.65 7.16056 18.65 8.51641 19.4918 9.35821C20.3336 10.2 21.6895 10.2 24.4 10.2H28.517C28.1007 9.39041 27.3532 8.71881 25.9548 7.45956Z" fill="#2C2C2C"/>
<path fill-rule="evenodd" clip-rule="evenodd" d="M20.4 24H15.6C11.0748 24 8.8116 24 7.4064 22.5936C6.0012 21.1872 6 18.9252 6 14.4V9.6C6 5.0748 6 2.8116 7.4064 1.4064C8.8128 0.00119991 11.0868 0 15.636 0C16.3632 0 16.9452 -4.91738e-08 17.436 0.0204C17.42 0.1164 17.412 0.214 17.412 0.3132L17.4 3.714C17.4 5.0304 17.4 6.1944 17.526 7.1316C17.6628 8.148 17.976 9.1644 18.8064 9.9948C19.6344 10.8228 20.652 11.1372 21.6684 11.274C22.6056 11.4 23.7696 11.4 25.086 11.4H29.9484C30 12.0408 30 12.828 30 13.8756V14.4C30 18.9252 30 21.1884 28.5936 22.5936C27.1872 23.9988 24.9252 24 20.4 24ZM24 16.8C24.6624 16.8 25.2 15.9936 25.2 15C25.2 14.0064 24.6624 13.2 24 13.2C23.3376 13.2 22.8 14.0064 22.8 15C22.8 15.9936 23.3376 16.8 24 16.8ZM13.6512 18.1008C13.7836 17.9022 13.9895 17.7644 14.2235 17.7176C14.4576 17.6707 14.7006 17.7188 14.8992 17.8512C15.8176 18.4631 16.8964 18.7897 18 18.7897C19.1036 18.7897 20.1824 18.4631 21.1008 17.8512C21.2994 17.7219 21.541 17.6762 21.7731 17.724C22.0052 17.7717 22.2092 17.9091 22.3406 18.1063C22.4721 18.3034 22.5204 18.5445 22.4752 18.7771C22.43 19.0098 22.2949 19.2152 22.0992 19.3488C20.8852 20.1578 19.4589 20.5895 18 20.5895C16.5411 20.5895 15.1148 20.1578 13.9008 19.3488C13.7022 19.2164 13.5644 19.0105 13.5176 18.7765C13.4707 18.5424 13.5188 18.2994 13.6512 18.1008ZM12 16.8C12.6624 16.8 13.2 15.9936 13.2 15C13.2 14.0064 12.6624 13.2 12 13.2C11.3376 13.2 10.8 14.0064 10.8 15C10.8 15.9936 11.3376 16.8 12 16.8Z" fill="#2C2C2C"/>
</svg>
