<svg width="24" height="24" viewBox="0 0 24 24" fill="none" xmlns="http://www.w3.org/2000/svg">
<path d="M19.9548 7.45956L15.4008 3.36211C14.1048 2.19486 13.4573 1.61066 12.6604 1.30591L12.65 4.45001C12.65 7.16056 12.65 8.51641 13.4918 9.35821C14.3336 10.2 15.6895 10.2 18.4 10.2H22.517C22.1007 9.39041 21.3532 8.71881 19.9548 7.45956Z" fill="#2C2C2C"/>
<path fill-rule="evenodd" clip-rule="evenodd" d="M14.4 24H9.6C5.0748 24 2.8116 24 1.4064 22.5936C0.00119991 21.1872 0 18.9252 0 14.4V9.6C0 5.0748 -1.43051e-07 2.8116 1.4064 1.4064C2.8128 0.00119991 5.0868 0 9.636 0C10.3632 0 10.9452 -4.91738e-08 11.436 0.0204C11.42 0.1164 11.412 0.214 11.412 0.3132L11.4 3.714C11.4 5.0304 11.4 6.1944 11.526 7.1316C11.6628 8.148 11.976 9.1644 12.8064 9.9948C13.6344 10.8228 14.652 11.1372 15.6684 11.274C16.6056 11.4 17.7696 11.4 19.086 11.4H23.9484C24 12.0408 24 12.828 24 13.8756V14.4C24 18.9252 24 21.1884 22.5936 22.5936C21.1872 23.9988 18.9252 24 14.4 24ZM18 16.8C18.6624 16.8 19.2 15.9936 19.2 15C19.2 14.0064 18.6624 13.2 18 13.2C17.3376 13.2 16.8 14.0064 16.8 15C16.8 15.9936 17.3376 16.8 18 16.8ZM7.6512 18.1008C7.78361 17.9022 7.98947 17.7644 8.22351 17.7176C8.45755 17.6707 8.7006 17.7188 8.8992 17.8512C9.81756 18.4631 10.8964 18.7897 12 18.7897C13.1036 18.7897 14.1824 18.4631 15.1008 17.8512C15.2994 17.7219 15.541 17.6762 15.7731 17.724C16.0052 17.7717 16.2092 17.9091 16.3406 18.1063C16.4721 18.3034 16.5204 18.5445 16.4752 18.7771C16.43 19.0098 16.2949 19.2152 16.0992 19.3488C14.8852 20.1578 13.4589 20.5895 12 20.5895C10.5411 20.5895 9.11483 20.1578 7.9008 19.3488C7.70222 19.2164 7.56436 19.0105 7.51755 18.7765C7.47075 18.5424 7.51882 18.2994 7.6512 18.1008ZM6 16.8C6.6624 16.8 7.2 15.9936 7.2 15C7.2 14.0064 6.6624 13.2 6 13.2C5.3376 13.2 4.8 14.0064 4.8 15C4.8 15.9936 5.3376 16.8 6 16.8Z" fill="#2C2C2C"/>
</svg>
