<svg width="28" height="25" viewBox="0 0 28 25" fill="none" xmlns="http://www.w3.org/2000/svg">
<path fill-rule="evenodd" clip-rule="evenodd" d="M7.15437 0.512526C8.07276 0.220011 9.30972 0 10.8889 0C12.9074 0 14.6595 0.826291 16.1591 1.72134L13.1525 11.3018C11.4564 10.313 9.50759 9.43547 7.28006 9.43547C5.44701 9.43547 4.01592 9.69173 2.95691 10.028L2.85735 10.0605L5.01022 1.94635C5.05278 1.78691 5.13648 1.64159 5.25288 1.52508C5.60754 1.16756 6.26211 0.79629 7.15437 0.512526ZM2.23389 12.4006L0.0312509 20.696C-0.0214144 20.8953 -0.00722448 21.1064 0.0716242 21.2968C0.150473 21.4871 0.289583 21.6461 0.467423 21.749C0.645263 21.8519 0.851914 21.8931 1.05539 21.8661C1.25887 21.8391 1.44782 21.7456 1.59301 21.5998C1.65274 21.5411 1.99247 21.2873 2.73913 21.0498C3.45841 20.821 4.50373 20.6248 5.91118 20.6248C7.3037 20.6248 8.57426 21.1423 9.84109 21.8598L12.5764 13.1382C10.8802 12.1144 9.17657 11.3131 7.28006 11.3131C5.61874 11.3131 4.37929 11.5443 3.51939 11.8168C2.83869 12.0344 2.43051 12.2644 2.23514 12.4044L2.23389 12.4006ZM11.4813 22.8686L11.5771 22.9311C12.2789 23.3837 13.0032 23.8487 13.71 24.2137C14.565 24.6525 15.497 25 16.4888 25C18.5708 25 21.2127 24.57 22.2717 24.3562C22.4426 24.322 22.6006 24.2404 22.7277 24.1207C22.8548 24.0009 22.946 23.8478 22.991 23.6787L25.0493 15.9208C23.5535 16.1621 21.4305 16.4308 19.6596 16.4308C18.5347 16.4308 17.4695 16.0371 16.4801 15.527C15.7285 15.1408 14.9632 14.6557 14.2103 14.1707L11.4813 22.8686ZM25.5794 13.9282L27.9687 4.92775C28.0094 4.77379 28.0104 4.61195 27.9716 4.45751C27.9328 4.30306 27.8554 4.16109 27.7468 4.045C27.6383 3.92892 27.502 3.84254 27.351 3.79402C27.1999 3.7455 27.0391 3.73644 26.8836 3.76769C25.8681 3.97145 23.3668 4.37397 21.4666 4.37397C20.9028 4.37397 20.2794 4.17396 19.5389 3.79394C18.9814 3.50642 18.4127 3.14766 17.793 2.74889L14.7914 12.3181L15.0316 12.4731C15.8529 13.0006 16.5996 13.4819 17.3313 13.8582C18.2074 14.3095 18.9628 14.5557 19.6584 14.5557C21.6532 14.5557 24.2031 14.1807 25.5794 13.9282Z" fill="#2C2C2C"/>
</svg>
