<svg width="39" height="42" viewBox="0 0 39 42" fill="none" xmlns="http://www.w3.org/2000/svg">
<path fill-rule="evenodd" clip-rule="evenodd" d="M13.6433 0.492025C14.4961 0.211211 15.6447 0 17.1111 0C18.9854 0 20.6124 0.79324 22.0048 1.65248L19.2131 10.8497C17.6381 9.9005 15.8285 9.05805 13.7601 9.05805C12.0579 9.05805 10.7291 9.30407 9.7457 9.62688L9.65326 9.65808L11.6523 1.86849C11.6919 1.71544 11.7696 1.57593 11.8777 1.46407C12.207 1.12086 12.8148 0.764438 13.6433 0.492025ZM9.07433 11.9046L7.02902 19.8682C6.98012 20.0595 6.99329 20.2622 7.06651 20.4449C7.13972 20.6277 7.2689 20.7802 7.43404 20.879C7.59917 20.9778 7.79106 21.0173 7.98001 20.9915C8.16895 20.9656 8.34441 20.8757 8.47922 20.7358C8.53469 20.6794 8.85015 20.4358 9.54348 20.2078C10.2114 19.9882 11.182 19.7998 12.489 19.7998C13.782 19.7998 14.9618 20.2966 16.1382 20.9854L18.678 12.6126C17.103 11.6298 15.5211 10.8605 13.7601 10.8605C12.2174 10.8605 11.0665 11.0826 10.268 11.3442C9.63592 11.553 9.2569 11.7738 9.07548 11.9082L9.07433 11.9046ZM17.6612 21.9539L17.7501 22.0139C18.4019 22.4483 19.0744 22.8947 19.7307 23.2452C20.5246 23.6664 21.3901 24 22.3111 24C24.2443 24 26.6975 23.5872 27.6809 23.382C27.8396 23.3491 27.9862 23.2708 28.1043 23.1558C28.2223 23.0409 28.307 22.8939 28.3488 22.7315L30.26 15.284C28.8711 15.5156 26.8997 15.7736 25.2554 15.7736C24.2108 15.7736 23.2216 15.3956 22.303 14.9059C21.605 14.5351 20.8944 14.0695 20.1953 13.6039L17.6612 21.9539ZM30.7523 13.3711L32.9709 4.73064C33.0088 4.58284 33.0097 4.42748 32.9736 4.27921C32.9376 4.13094 32.8658 3.99465 32.7649 3.8832C32.6641 3.77176 32.5376 3.68884 32.3973 3.64226C32.2571 3.59568 32.1077 3.58698 31.9633 3.61698C31.0204 3.81259 28.6977 4.19901 26.9332 4.19901C26.4098 4.19901 25.8308 4.007 25.1433 3.64218C24.6256 3.36617 24.0975 3.02175 23.5221 2.63893L20.7349 11.8254L20.9579 11.9742C21.7206 12.4806 22.4139 12.9426 23.0934 13.3039C23.9069 13.7371 24.6083 13.9735 25.2542 13.9735C27.1066 13.9735 29.4743 13.6135 30.7523 13.3711Z" fill="#2C2C2C"/>
<path d="M1.12285 39V31.8H5.62285V32.505H1.85785V39H1.12285ZM5.1248 39V38.355C5.3248 38.3917 5.47647 38.3833 5.5798 38.33C5.68647 38.2733 5.7648 38.18 5.8148 38.05C5.8648 37.9167 5.90647 37.7517 5.9398 37.555C5.99314 37.2283 6.04147 36.8683 6.0848 36.475C6.12814 36.0817 6.16647 35.6483 6.1998 35.175C6.23647 34.6983 6.27314 34.1733 6.3098 33.6H9.9798V39H9.24981V34.305H6.9898C6.96647 34.6583 6.9398 35.01 6.9098 35.36C6.8798 35.71 6.84814 36.0467 6.8148 36.37C6.7848 36.69 6.75147 36.985 6.7148 37.255C6.67814 37.525 6.6398 37.7583 6.5998 37.955C6.5398 38.2517 6.4598 38.4883 6.3598 38.665C6.26314 38.8417 6.11814 38.9583 5.9248 39.015C5.73147 39.0717 5.4648 39.0667 5.1248 39ZM12.9218 39.15C12.5151 39.15 12.1734 39.0767 11.8968 38.93C11.6234 38.7833 11.4184 38.5883 11.2818 38.345C11.1451 38.1017 11.0768 37.8367 11.0768 37.55C11.0768 37.2567 11.1351 37.0067 11.2518 36.8C11.3718 36.59 11.5334 36.4183 11.7368 36.285C11.9434 36.1517 12.1818 36.05 12.4518 35.98C12.7251 35.9133 13.0268 35.855 13.3568 35.805C13.6901 35.7517 14.0151 35.7067 14.3318 35.67C14.6518 35.63 14.9318 35.5917 15.1718 35.555L14.9118 35.715C14.9218 35.1817 14.8184 34.7867 14.6018 34.53C14.3851 34.2733 14.0084 34.145 13.4718 34.145C13.1018 34.145 12.7884 34.2283 12.5318 34.395C12.2784 34.5617 12.1001 34.825 11.9968 35.185L11.2818 34.975C11.4051 34.4917 11.6534 34.1167 12.0268 33.85C12.4001 33.5833 12.8851 33.45 13.4818 33.45C13.9751 33.45 14.3934 33.5433 14.7368 33.73C15.0834 33.9133 15.3284 34.18 15.4718 34.53C15.5384 34.6867 15.5818 34.8617 15.6018 35.055C15.6218 35.2483 15.6318 35.445 15.6318 35.645V39H14.9768V37.645L15.1668 37.725C14.9834 38.1883 14.6984 38.5417 14.3118 38.785C13.9251 39.0283 13.4618 39.15 12.9218 39.15ZM13.0068 38.515C13.3501 38.515 13.6501 38.4533 13.9068 38.33C14.1634 38.2067 14.3701 38.0383 14.5268 37.825C14.6834 37.6083 14.7851 37.365 14.8318 37.095C14.8718 36.9217 14.8934 36.7317 14.8968 36.525C14.9001 36.315 14.9018 36.1583 14.9018 36.055L15.1818 36.2C14.9318 36.2333 14.6601 36.2667 14.3668 36.3C14.0768 36.3333 13.7901 36.3717 13.5068 36.415C13.2268 36.4583 12.9734 36.51 12.7468 36.57C12.5934 36.6133 12.4451 36.675 12.3018 36.755C12.1584 36.8317 12.0401 36.935 11.9468 37.065C11.8568 37.195 11.8118 37.3567 11.8118 37.55C11.8118 37.7067 11.8501 37.8583 11.9268 38.005C12.0068 38.1517 12.1334 38.2733 12.3068 38.37C12.4834 38.4667 12.7168 38.515 13.0068 38.515ZM16.9284 39V33.6H19.1534C19.2667 33.6 19.4034 33.6067 19.5634 33.62C19.7267 33.6333 19.8784 33.6583 20.0184 33.695C20.3217 33.775 20.5651 33.9383 20.7484 34.185C20.9351 34.4317 21.0284 34.7283 21.0284 35.075C21.0284 35.2683 20.9984 35.4417 20.9384 35.595C20.8817 35.745 20.8001 35.875 20.6934 35.985C20.6434 36.0417 20.5884 36.0917 20.5284 36.135C20.4684 36.175 20.4101 36.2083 20.3534 36.235C20.4601 36.255 20.5751 36.3017 20.6984 36.375C20.8917 36.4883 21.0384 36.6417 21.1384 36.835C21.2384 37.025 21.2884 37.2567 21.2884 37.53C21.2884 37.9 21.2001 38.2017 21.0234 38.435C20.8467 38.6683 20.6101 38.8283 20.3134 38.915C20.1801 38.9517 20.0351 38.975 19.8784 38.985C19.7251 38.995 19.5801 39 19.4434 39H16.9284ZM17.6684 38.375H19.4084C19.4784 38.375 19.5667 38.37 19.6734 38.36C19.7801 38.3467 19.8751 38.33 19.9584 38.31C20.1551 38.26 20.2984 38.16 20.3884 38.01C20.4817 37.8567 20.5284 37.69 20.5284 37.51C20.5284 37.2733 20.4584 37.08 20.3184 36.93C20.1817 36.7767 19.9984 36.6833 19.7684 36.65C19.6917 36.6333 19.6117 36.6233 19.5284 36.62C19.4451 36.6167 19.3701 36.615 19.3034 36.615H17.6684V38.375ZM17.6684 35.985H19.1784C19.2651 35.985 19.3617 35.98 19.4684 35.97C19.5784 35.9567 19.6734 35.935 19.7534 35.905C19.9267 35.845 20.0534 35.7417 20.1334 35.595C20.2167 35.4483 20.2584 35.2883 20.2584 35.115C20.2584 34.925 20.2134 34.7583 20.1234 34.615C20.0367 34.4717 19.9051 34.3717 19.7284 34.315C19.6084 34.2717 19.4784 34.2467 19.3384 34.24C19.2017 34.2333 19.1151 34.23 19.0784 34.23H17.6684V35.985ZM22.28 39V33.6H23.015V35.945H26.06V33.6H26.795V39H26.06V36.65H23.015V39H22.28ZM29.7382 39.15C29.3315 39.15 28.9898 39.0767 28.7132 38.93C28.4398 38.7833 28.2348 38.5883 28.0982 38.345C27.9615 38.1017 27.8932 37.8367 27.8932 37.55C27.8932 37.2567 27.9515 37.0067 28.0682 36.8C28.1882 36.59 28.3498 36.4183 28.5532 36.285C28.7598 36.1517 28.9982 36.05 29.2682 35.98C29.5415 35.9133 29.8432 35.855 30.1732 35.805C30.5065 35.7517 30.8315 35.7067 31.1482 35.67C31.4682 35.63 31.7482 35.5917 31.9882 35.555L31.7282 35.715C31.7382 35.1817 31.6348 34.7867 31.4182 34.53C31.2015 34.2733 30.8248 34.145 30.2882 34.145C29.9182 34.145 29.6048 34.2283 29.3482 34.395C29.0948 34.5617 28.9165 34.825 28.8132 35.185L28.0982 34.975C28.2215 34.4917 28.4698 34.1167 28.8432 33.85C29.2165 33.5833 29.7015 33.45 30.2982 33.45C30.7915 33.45 31.2098 33.5433 31.5532 33.73C31.8998 33.9133 32.1448 34.18 32.2882 34.53C32.3548 34.6867 32.3982 34.8617 32.4182 35.055C32.4382 35.2483 32.4482 35.445 32.4482 35.645V39H31.7932V37.645L31.9832 37.725C31.7998 38.1883 31.5148 38.5417 31.1282 38.785C30.7415 39.0283 30.2782 39.15 29.7382 39.15ZM29.8232 38.515C30.1665 38.515 30.4665 38.4533 30.7232 38.33C30.9798 38.2067 31.1865 38.0383 31.3432 37.825C31.4998 37.6083 31.6015 37.365 31.6482 37.095C31.6882 36.9217 31.7098 36.7317 31.7132 36.525C31.7165 36.315 31.7182 36.1583 31.7182 36.055L31.9982 36.2C31.7482 36.2333 31.4765 36.2667 31.1832 36.3C30.8932 36.3333 30.6065 36.3717 30.3232 36.415C30.0432 36.4583 29.7898 36.51 29.5632 36.57C29.4098 36.6133 29.2615 36.675 29.1182 36.755C28.9748 36.8317 28.8565 36.935 28.7632 37.065C28.6732 37.195 28.6282 37.3567 28.6282 37.55C28.6282 37.7067 28.6665 37.8583 28.7432 38.005C28.8232 38.1517 28.9498 38.2733 29.1232 38.37C29.2998 38.4667 29.5332 38.515 29.8232 38.515ZM37.1348 39V36.965H35.8748C35.7281 36.965 35.5765 36.96 35.4198 36.95C35.2665 36.9367 35.1231 36.9183 34.9898 36.895C34.6098 36.8217 34.2865 36.655 34.0198 36.395C33.7565 36.1317 33.6248 35.7683 33.6248 35.305C33.6248 34.8517 33.7481 34.4883 33.9948 34.215C34.2415 33.9383 34.5398 33.7583 34.8898 33.675C35.0498 33.6383 35.2115 33.6167 35.3748 33.61C35.5415 33.6033 35.6848 33.6 35.8048 33.6H37.8698L37.8748 39H37.1348ZM33.4498 39L34.9548 36.735H35.7698L34.2548 39H33.4498ZM35.8348 36.335H37.1348V34.23H35.8348C35.7548 34.23 35.6431 34.2333 35.4998 34.24C35.3565 34.2467 35.2215 34.2683 35.0948 34.305C34.9848 34.3383 34.8748 34.3967 34.7648 34.48C34.6581 34.56 34.5681 34.6683 34.4948 34.805C34.4215 34.9383 34.3848 35.1017 34.3848 35.295C34.3848 35.565 34.4581 35.7817 34.6048 35.945C34.7548 36.105 34.9415 36.215 35.1648 36.275C35.2848 36.3017 35.4048 36.3183 35.5248 36.325C35.6448 36.3317 35.7481 36.335 35.8348 36.335Z" fill="#2C2C2C"/>
</svg>
