<svg width="13" height="13" viewBox="0 0 13 13" fill="none" xmlns="http://www.w3.org/2000/svg">
<path d="M0.937314 4.82639C1.21884 3.77567 1.80565 2.83203 2.62353 2.1148C3.44142 1.39758 4.45364 0.938994 5.53219 0.797037C6.61074 0.65508 7.70716 0.83613 8.6828 1.31729C9.65844 1.79845 10.4695 2.55811 11.0133 3.50019L11.2239 3.97725M11.2239 3.97725C11.3709 3.95296 11.5045 3.87726 11.6008 3.76364C11.6972 3.65002 11.7501 3.50587 11.75 3.35689V0.750388M11.2239 3.97725C11.1904 3.98269 11.1562 3.98542 11.1214 3.98542H8.51474M0.75 11.7496V9.14311C0.75 8.97641 0.816224 8.81655 0.934104 8.69867C1.05198 8.5808 1.21186 8.51458 1.37857 8.51458M1.37857 8.51458H3.98526M1.37857 8.51458L1.48669 8.99981C2.03053 9.94189 2.84156 10.7015 3.8172 11.1827C4.79284 11.6639 5.88926 11.8449 6.96781 11.703C8.04636 11.561 9.05858 11.1024 9.87647 10.3852C10.6944 9.66797 11.2812 8.72433 11.5627 7.67361" stroke="white" stroke-width="1.5" stroke-linecap="round" stroke-linejoin="round"/>
</svg>
