<svg width="28" height="24" viewBox="0 0 28 24" fill="none" xmlns="http://www.w3.org/2000/svg">
<path d="M25 0C25.7956 0 26.5587 0.316071 27.1213 0.87868C27.6839 1.44129 28 2.20435 28 3V9C28 10.32 27.48 11.6 26.54 12.54C25.6 13.48 24.32 14 23 14C21.68 14 20.4 13.48 19.46 12.54C18.52 11.6 18 10.32 18 9V3C18 2.20435 18.3161 1.44129 18.8787 0.87868C19.4413 0.316071 20.2044 0 21 0H25ZM23.7 5.7C23.9 5.52 24 5.26 24 5V2H22V5C22 5.26 22.1 5.52 22.3 5.7C22.48 5.9 22.74 6 23 6C23.26 6 23.52 5.9 23.7 5.7ZM23 16C24.872 16 26.63 15.272 27.95 13.95L27.976 13.92L28 13.888V20.5C28 21.4283 27.6313 22.3185 26.9749 22.9749C26.3185 23.6313 25.4283 24 24.5 24H3.5C2.57174 24 1.6815 23.6313 1.02513 22.9749C0.368749 22.3185 0 21.4283 0 20.5V7.5C0 5.568 1.568 4 3.5 4H16V9C16 10.868 16.728 12.626 18.05 13.948C18.6979 14.601 19.4692 15.1187 20.319 15.471C21.1688 15.8233 22.0801 16.0031 23 16ZM16 14.5C16 14.1022 15.842 13.7206 15.5607 13.4393C15.2794 13.158 14.8978 13 14.5 13C14.1022 13 13.7206 13.158 13.4393 13.4393C13.158 13.7206 13 14.1022 13 14.5C13 14.8978 13.158 15.2794 13.4393 15.5607C13.7206 15.842 14.1022 16 14.5 16C14.8978 16 15.2794 15.842 15.5607 15.5607C15.842 15.2794 16 14.8978 16 14.5ZM12 10.5C12 10.303 11.9612 10.108 11.8858 9.92597C11.8104 9.74399 11.6999 9.57863 11.5607 9.43934C11.4214 9.30005 11.256 9.18956 11.074 9.11418C10.892 9.0388 10.697 9 10.5 9C10.303 9 10.108 9.0388 9.92597 9.11418C9.74399 9.18956 9.57863 9.30005 9.43934 9.43934C9.30005 9.57863 9.18956 9.74399 9.11418 9.92597C9.0388 10.108 9 10.303 9 10.5C9 10.8978 9.15804 11.2794 9.43934 11.5607C9.72064 11.842 10.1022 12 10.5 12C10.8978 12 11.2794 11.842 11.5607 11.5607C11.842 11.2794 12 10.8978 12 10.5ZM10 14.5C10 14.1022 9.84196 13.7206 9.56066 13.4393C9.27936 13.158 8.89782 13 8.5 13C8.10218 13 7.72064 13.158 7.43934 13.4393C7.15804 13.7206 7 14.1022 7 14.5C7 14.8978 7.15804 15.2794 7.43934 15.5607C7.72064 15.842 8.10218 16 8.5 16C8.89782 16 9.27936 15.842 9.56066 15.5607C9.84196 15.2794 10 14.8978 10 14.5ZM4.5 9C4.30302 9 4.10796 9.0388 3.92597 9.11418C3.74399 9.18956 3.57863 9.30005 3.43934 9.43934C3.30005 9.57863 3.18956 9.74399 3.11418 9.92597C3.0388 10.108 3 10.303 3 10.5C3 10.697 3.0388 10.892 3.11418 11.074C3.18956 11.256 3.30005 11.4214 3.43934 11.5607C3.57863 11.6999 3.74399 11.8104 3.92597 11.8858C4.10796 11.9612 4.30302 12 4.5 12C4.89782 12 5.27936 11.842 5.56066 11.5607C5.84196 11.2794 6 10.8978 6 10.5C6 10.1022 5.84196 9.72064 5.56066 9.43934C5.27936 9.15804 4.89782 9 4.5 9ZM5 20H23C23.2652 20 23.5196 19.8946 23.7071 19.7071C23.8946 19.5196 24 19.2652 24 19C24 18.7348 23.8946 18.4804 23.7071 18.2929C23.5196 18.1054 23.2652 18 23 18H5C4.73478 18 4.48043 18.1054 4.29289 18.2929C4.10536 18.4804 4 18.7348 4 19C4 19.2652 4.10536 19.5196 4.29289 19.7071C4.48043 19.8946 4.73478 20 5 20Z" fill="#2C2C2C"/>
</svg>
