<svg width="34" height="42" viewBox="0 0 34 42" fill="none" xmlns="http://www.w3.org/2000/svg">
<path d="M0.883594 39V31.8H3.66359C3.73359 31.8 3.81193 31.8033 3.89859 31.81C3.98859 31.8133 4.07859 31.8233 4.16859 31.84C4.54526 31.8967 4.86359 32.0283 5.12359 32.235C5.38693 32.4383 5.58526 32.695 5.71859 33.005C5.85526 33.315 5.92359 33.6583 5.92359 34.035C5.92359 34.4083 5.85526 34.75 5.71859 35.06C5.58193 35.37 5.38193 35.6283 5.11859 35.835C4.85859 36.0383 4.54193 36.1683 4.16859 36.225C4.07859 36.2383 3.98859 36.2483 3.89859 36.255C3.81193 36.2617 3.73359 36.265 3.66359 36.265H1.61859V39H0.883594ZM1.61859 35.565H3.64359C3.70359 35.565 3.77359 35.5617 3.85359 35.555C3.93359 35.5483 4.01193 35.5367 4.08859 35.52C4.33526 35.4667 4.53693 35.365 4.69359 35.215C4.85359 35.065 4.97193 34.8867 5.04859 34.68C5.12859 34.4733 5.16859 34.2583 5.16859 34.035C5.16859 33.8117 5.12859 33.5967 5.04859 33.39C4.97193 33.18 4.85359 33 4.69359 32.85C4.53693 32.7 4.33526 32.5983 4.08859 32.545C4.01193 32.5283 3.93359 32.5183 3.85359 32.515C3.77359 32.5083 3.70359 32.505 3.64359 32.505H1.61859V35.565ZM8.46375 39.15C8.05708 39.15 7.71542 39.0767 7.43875 38.93C7.16542 38.7833 6.96042 38.5883 6.82375 38.345C6.68708 38.1017 6.61875 37.8367 6.61875 37.55C6.61875 37.2567 6.67708 37.0067 6.79375 36.8C6.91375 36.59 7.07542 36.4183 7.27875 36.285C7.48542 36.1517 7.72375 36.05 7.99375 35.98C8.26708 35.9133 8.56875 35.855 8.89875 35.805C9.23208 35.7517 9.55708 35.7067 9.87375 35.67C10.1938 35.63 10.4738 35.5917 10.7138 35.555L10.4538 35.715C10.4638 35.1817 10.3604 34.7867 10.1438 34.53C9.92708 34.2733 9.55042 34.145 9.01375 34.145C8.64375 34.145 8.33042 34.2283 8.07375 34.395C7.82042 34.5617 7.64208 34.825 7.53875 35.185L6.82375 34.975C6.94708 34.4917 7.19542 34.1167 7.56875 33.85C7.94208 33.5833 8.42708 33.45 9.02375 33.45C9.51708 33.45 9.93542 33.5433 10.2788 33.73C10.6254 33.9133 10.8704 34.18 11.0138 34.53C11.0804 34.6867 11.1238 34.8617 11.1438 35.055C11.1638 35.2483 11.1738 35.445 11.1738 35.645V39H10.5188V37.645L10.7088 37.725C10.5254 38.1883 10.2404 38.5417 9.85375 38.785C9.46708 39.0283 9.00375 39.15 8.46375 39.15ZM8.54875 38.515C8.89208 38.515 9.19208 38.4533 9.44875 38.33C9.70542 38.2067 9.91208 38.0383 10.0688 37.825C10.2254 37.6083 10.3271 37.365 10.3738 37.095C10.4138 36.9217 10.4354 36.7317 10.4388 36.525C10.4421 36.315 10.4438 36.1583 10.4438 36.055L10.7238 36.2C10.4738 36.2333 10.2021 36.2667 9.90875 36.3C9.61875 36.3333 9.33208 36.3717 9.04875 36.415C8.76875 36.4583 8.51542 36.51 8.28875 36.57C8.13542 36.6133 7.98708 36.675 7.84375 36.755C7.70042 36.8317 7.58208 36.935 7.48875 37.065C7.39875 37.195 7.35375 37.3567 7.35375 37.55C7.35375 37.7067 7.39208 37.8583 7.46875 38.005C7.54875 38.1517 7.67542 38.2733 7.84875 38.37C8.02542 38.4667 8.25875 38.515 8.54875 38.515ZM14.6404 39.155C14.1371 39.1517 13.7054 39.0417 13.3454 38.825C12.9854 38.6083 12.7054 38.285 12.5054 37.855C12.3087 37.425 12.2021 36.8883 12.1854 36.245C12.1754 35.9617 12.1821 35.6533 12.2054 35.32C12.2287 34.9833 12.2654 34.6633 12.3154 34.36C12.3654 34.0567 12.4254 33.81 12.4954 33.62C12.5821 33.3733 12.7054 33.1433 12.8654 32.93C13.0287 32.7133 13.2171 32.5367 13.4304 32.4C13.6371 32.26 13.8704 32.1517 14.1304 32.075C14.3937 31.995 14.6671 31.9333 14.9504 31.89C15.2371 31.8467 15.5204 31.8083 15.8004 31.775C16.0837 31.7417 16.3454 31.7 16.5854 31.65L16.6654 32.315C16.4821 32.3517 16.2654 32.385 16.0154 32.415C15.7654 32.445 15.5037 32.4817 15.2304 32.525C14.9571 32.565 14.6954 32.62 14.4454 32.69C14.1954 32.76 13.9821 32.8517 13.8054 32.965C13.5354 33.1283 13.3271 33.375 13.1804 33.705C13.0371 34.035 12.9487 34.4133 12.9154 34.84C13.1221 34.5167 13.3954 34.2733 13.7354 34.11C14.0787 33.9467 14.4504 33.865 14.8504 33.865C15.3371 33.865 15.7554 33.9767 16.1054 34.2C16.4587 34.4233 16.7304 34.7333 16.9204 35.13C17.1104 35.5267 17.2054 35.9817 17.2054 36.495C17.2054 37.0317 17.1004 37.5 16.8904 37.9C16.6837 38.3 16.3887 38.61 16.0054 38.83C15.6221 39.0467 15.1671 39.155 14.6404 39.155ZM14.6954 38.45C15.2621 38.45 15.6921 38.2733 15.9854 37.92C16.2821 37.5667 16.4304 37.0967 16.4304 36.51C16.4304 35.91 16.2771 35.4367 15.9704 35.09C15.6671 34.7433 15.2387 34.57 14.6854 34.57C14.1321 34.57 13.7071 34.7433 13.4104 35.09C13.1137 35.4367 12.9654 35.91 12.9654 36.51C12.9654 37.11 13.1137 37.5833 13.4104 37.93C13.7071 38.2767 14.1354 38.45 14.6954 38.45ZM20.5605 39.15C20.0238 39.15 19.5655 39.0283 19.1855 38.785C18.8055 38.5417 18.5138 38.205 18.3105 37.775C18.1071 37.345 18.0055 36.8517 18.0055 36.295C18.0055 35.7283 18.1088 35.2317 18.3155 34.805C18.5221 34.3783 18.8155 34.0467 19.1955 33.81C19.5788 33.57 20.0338 33.45 20.5605 33.45C21.1005 33.45 21.5605 33.5717 21.9405 33.815C22.3238 34.055 22.6155 34.39 22.8155 34.82C23.0188 35.2467 23.1205 35.7383 23.1205 36.295C23.1205 36.8617 23.0188 37.36 22.8155 37.79C22.6121 38.2167 22.3188 38.55 21.9355 38.79C21.5521 39.03 21.0938 39.15 20.5605 39.15ZM20.5605 38.445C21.1605 38.445 21.6071 38.2467 21.9005 37.85C22.1938 37.45 22.3405 36.9317 22.3405 36.295C22.3405 35.6417 22.1921 35.1217 21.8955 34.735C21.6021 34.3483 21.1571 34.155 20.5605 34.155C20.1571 34.155 19.8238 34.2467 19.5605 34.43C19.3005 34.61 19.1055 34.8617 18.9755 35.185C18.8488 35.505 18.7855 35.875 18.7855 36.295C18.7855 36.945 18.9355 37.4667 19.2355 37.86C19.5355 38.25 19.9771 38.445 20.5605 38.445ZM25.5615 39V34.28H23.6465V33.6H28.2115V34.28H26.2965V39H25.5615ZM30.5048 39.15C30.0981 39.15 29.7564 39.0767 29.4798 38.93C29.2064 38.7833 29.0014 38.5883 28.8648 38.345C28.7281 38.1017 28.6598 37.8367 28.6598 37.55C28.6598 37.2567 28.7181 37.0067 28.8348 36.8C28.9548 36.59 29.1164 36.4183 29.3198 36.285C29.5264 36.1517 29.7648 36.05 30.0348 35.98C30.3081 35.9133 30.6098 35.855 30.9398 35.805C31.2731 35.7517 31.5981 35.7067 31.9148 35.67C32.2348 35.63 32.5148 35.5917 32.7548 35.555L32.4948 35.715C32.5048 35.1817 32.4014 34.7867 32.1848 34.53C31.9681 34.2733 31.5914 34.145 31.0548 34.145C30.6848 34.145 30.3714 34.2283 30.1148 34.395C29.8614 34.5617 29.6831 34.825 29.5798 35.185L28.8648 34.975C28.9881 34.4917 29.2364 34.1167 29.6098 33.85C29.9831 33.5833 30.4681 33.45 31.0648 33.45C31.5581 33.45 31.9764 33.5433 32.3198 33.73C32.6664 33.9133 32.9114 34.18 33.0548 34.53C33.1214 34.6867 33.1648 34.8617 33.1848 35.055C33.2048 35.2483 33.2148 35.445 33.2148 35.645V39H32.5598V37.645L32.7498 37.725C32.5664 38.1883 32.2814 38.5417 31.8948 38.785C31.5081 39.0283 31.0448 39.15 30.5048 39.15ZM30.5898 38.515C30.9331 38.515 31.2331 38.4533 31.4898 38.33C31.7464 38.2067 31.9531 38.0383 32.1098 37.825C32.2664 37.6083 32.3681 37.365 32.4148 37.095C32.4548 36.9217 32.4764 36.7317 32.4798 36.525C32.4831 36.315 32.4848 36.1583 32.4848 36.055L32.7648 36.2C32.5148 36.2333 32.2431 36.2667 31.9498 36.3C31.6598 36.3333 31.3731 36.3717 31.0898 36.415C30.8098 36.4583 30.5564 36.51 30.3298 36.57C30.1764 36.6133 30.0281 36.675 29.8848 36.755C29.7414 36.8317 29.6231 36.935 29.5298 37.065C29.4398 37.195 29.3948 37.3567 29.3948 37.55C29.3948 37.7067 29.4331 37.8583 29.5098 38.005C29.5898 38.1517 29.7164 38.2733 29.8898 38.37C30.0664 38.4667 30.2998 38.515 30.5898 38.515Z" fill="#2C2C2C"/>
<path d="M28 0C28.7956 0 29.5587 0.316071 30.1213 0.87868C30.6839 1.44129 31 2.20435 31 3V9C31 10.32 30.48 11.6 29.54 12.54C28.6 13.48 27.32 14 26 14C24.68 14 23.4 13.48 22.46 12.54C21.52 11.6 21 10.32 21 9V3C21 2.20435 21.3161 1.44129 21.8787 0.87868C22.4413 0.316071 23.2044 0 24 0H28ZM26.7 5.7C26.9 5.52 27 5.26 27 5V2H25V5C25 5.26 25.1 5.52 25.3 5.7C25.48 5.9 25.74 6 26 6C26.26 6 26.52 5.9 26.7 5.7ZM26 16C27.872 16 29.63 15.272 30.95 13.95L30.976 13.92L31 13.888V20.5C31 21.4283 30.6313 22.3185 29.9749 22.9749C29.3185 23.6313 28.4283 24 27.5 24H6.5C5.57174 24 4.6815 23.6313 4.02513 22.9749C3.36875 22.3185 3 21.4283 3 20.5V7.5C3 5.568 4.568 4 6.5 4H19V9C19 10.868 19.728 12.626 21.05 13.948C21.6979 14.601 22.4692 15.1187 23.319 15.471C24.1688 15.8233 25.0801 16.0031 26 16ZM19 14.5C19 14.1022 18.842 13.7206 18.5607 13.4393C18.2794 13.158 17.8978 13 17.5 13C17.1022 13 16.7206 13.158 16.4393 13.4393C16.158 13.7206 16 14.1022 16 14.5C16 14.8978 16.158 15.2794 16.4393 15.5607C16.7206 15.842 17.1022 16 17.5 16C17.8978 16 18.2794 15.842 18.5607 15.5607C18.842 15.2794 19 14.8978 19 14.5ZM15 10.5C15 10.303 14.9612 10.108 14.8858 9.92597C14.8104 9.74399 14.6999 9.57863 14.5607 9.43934C14.4214 9.30005 14.256 9.18956 14.074 9.11418C13.892 9.0388 13.697 9 13.5 9C13.303 9 13.108 9.0388 12.926 9.11418C12.744 9.18956 12.5786 9.30005 12.4393 9.43934C12.3001 9.57863 12.1896 9.74399 12.1142 9.92597C12.0388 10.108 12 10.303 12 10.5C12 10.8978 12.158 11.2794 12.4393 11.5607C12.7206 11.842 13.1022 12 13.5 12C13.8978 12 14.2794 11.842 14.5607 11.5607C14.842 11.2794 15 10.8978 15 10.5ZM13 14.5C13 14.1022 12.842 13.7206 12.5607 13.4393C12.2794 13.158 11.8978 13 11.5 13C11.1022 13 10.7206 13.158 10.4393 13.4393C10.158 13.7206 10 14.1022 10 14.5C10 14.8978 10.158 15.2794 10.4393 15.5607C10.7206 15.842 11.1022 16 11.5 16C11.8978 16 12.2794 15.842 12.5607 15.5607C12.842 15.2794 13 14.8978 13 14.5ZM7.5 9C7.30302 9 7.10796 9.0388 6.92597 9.11418C6.74399 9.18956 6.57863 9.30005 6.43934 9.43934C6.30005 9.57863 6.18956 9.74399 6.11418 9.92597C6.0388 10.108 6 10.303 6 10.5C6 10.697 6.0388 10.892 6.11418 11.074C6.18956 11.256 6.30005 11.4214 6.43934 11.5607C6.57863 11.6999 6.74399 11.8104 6.92597 11.8858C7.10796 11.9612 7.30302 12 7.5 12C7.89782 12 8.27936 11.842 8.56066 11.5607C8.84196 11.2794 9 10.8978 9 10.5C9 10.1022 8.84196 9.72064 8.56066 9.43934C8.27936 9.15804 7.89782 9 7.5 9ZM8 20H26C26.2652 20 26.5196 19.8946 26.7071 19.7071C26.8946 19.5196 27 19.2652 27 19C27 18.7348 26.8946 18.4804 26.7071 18.2929C26.5196 18.1054 26.2652 18 26 18H8C7.73478 18 7.48043 18.1054 7.29289 18.2929C7.10536 18.4804 7 18.7348 7 19C7 19.2652 7.10536 19.5196 7.29289 19.7071C7.48043 19.8946 7.73478 20 8 20Z" fill="#2C2C2C"/>
</svg>
